<mxfile host="app.diagrams.net" modified="2024-05-09T01:23:00.676Z" agent="Mozilla/5.0 (Windows NT 10.0; Win64; x64) AppleWebKit/537.36 (KHTML, like Gecko) Chrome/114.0.0.0 Safari/537.36" version="24.3.1" etag="TNXNfeoldzkPwESjCcI_" type="github">
  <diagram name="PÃ¡gina-1" id="2p3myQ8hu2KrEpWZkSMp">
    <mxGraphModel>
      <root>
        <mxCell id="0" />
        <mxCell id="1" parent="0" />
      </root>
    </mxGraphModel>
  </diagram>
</mxfile>
